<?xml version="1.0" encoding="UTF-8" standalone="no"?>
<!-- Created with Inkscape (http://www.inkscape.org/) -->

<svg
   width="210mm"
   height="297mm"
   viewBox="0 0 210 297"
   version="1.1"
   id="svg1"
   xml:space="preserve"
   inkscape:version="1.3.2 (091e20e, 2023-11-25)"
   sodipodi:docname="3.svg"
   xmlns:inkscape="http://www.inkscape.org/namespaces/inkscape"
   xmlns:sodipodi="http://sodipodi.sourceforge.net/DTD/sodipodi-0.dtd"
   xmlns="http://www.w3.org/2000/svg"
   xmlns:svg="http://www.w3.org/2000/svg"><sodipodi:namedview
     id="namedview1"
     pagecolor="#ffffff"
     bordercolor="#000000"
     borderopacity="0.25"
     inkscape:showpageshadow="2"
     inkscape:pageopacity="0.0"
     inkscape:pagecheckerboard="0"
     inkscape:deskcolor="#d1d1d1"
     inkscape:document-units="mm"
     showguides="false"
     inkscape:zoom="0.24347909"
     inkscape:cx="-34.910595"
     inkscape:cy="-135.53525"
     inkscape:window-width="1320"
     inkscape:window-height="947"
     inkscape:window-x="736"
     inkscape:window-y="44"
     inkscape:window-maximized="0"
     inkscape:current-layer="svg1"><sodipodi:guide
       position="8.7312498,200.69167"
       orientation="0,-1"
       id="guide1"
       inkscape:locked="false" /><sodipodi:guide
       position="164.30625,287.47501"
       orientation="0,-1"
       id="guide10"
       inkscape:locked="false" /><sodipodi:guide
       position="139.7,282.71251"
       orientation="0,-1"
       id="guide11"
       inkscape:locked="false" /></sodipodi:namedview><defs
     id="defs1"><linearGradient
       id="swatch13"
       inkscape:swatch="solid"><stop
         style="stop-color:#000000;stop-opacity:1;"
         offset="0"
         id="stop13" /></linearGradient><linearGradient
       id="swatch7"><stop
         style="stop-color:#000000;stop-opacity:1;"
         offset="0"
         id="stop7" /></linearGradient></defs><rect
     style="display:none;fill:#565757;fill-opacity:0.996016;stroke:#000000;stroke-width:0.155544;stroke-dasharray:none;stroke-opacity:0.996016"
     id="rect1-5-3"
     width="249.80685"
     height="223.25331"
     x="-20.100565"
     y="-5.2360096"
     inkscape:label="bg" /><path
     id="path13-14"
     style="color:#000000;display:inline;fill:#d53438;fill-opacity:1;stroke:#000000;stroke-width:0.536117;stroke-miterlimit:1.4;stroke-dasharray:none;stroke-opacity:0.996016"
     inkscape:label="funnel"
     d="m 50.345086,220.41956 c 3.007634,9.99987 8.819408,17.19381 19.165968,22.60586 20.951352,10.95916 63.400186,-0.63756 90.888126,-8.5289 25.02694,-7.18482 29.74965,1.65333 46.72632,-0.38689 -9.56857,-12.54412 -22.84541,-22.31277 -36.27053,-25.64661 -25.17257,-6.25105 -33.42922,1.91953 -33.20825,1.33425 0.80023,-2.11958 5.41162,-4.1508 4.65289,-21.6493 l -26.2372,14.53065 -38.357433,13.97577 z"
     sodipodi:nodetypes="csscsscccc" /><path
     style="color:#000000;display:inline;fill:#f2b901;fill-opacity:1;stroke:#000000;stroke-width:0.168857;stroke-dasharray:none;stroke-opacity:0.996016"
     d="m 52.229842,171.73668 6.797142,-21.82887 -56.4235244,-39.14759 68.6716484,-0.59131 19.79571,-65.759206 21.783072,65.127886 68.65794,-1.49387 -17.97601,11.58643 -31.96781,21.05636 -24.26827,15.65678 -26.800941,11.17209 z"
     id="path3"
     inkscape:label="star"
     sodipodi:nodetypes="cccccccccccc" /><path
     id="path5"
     style="color:#000000;display:inline;fill:#ebe9ea;fill-opacity:1;stroke:#000000;stroke-width:0.218656;stroke-miterlimit:1.4;stroke-dasharray:none;stroke-opacity:0.996016"
     inkscape:label="patch"
     d="m 172.55541,119.51793 c 0.66,19.52307 -18.47824,47.94887 -33.21148,60.01617 -32.81786,26.87954 -94.504462,35.25874 -98.132862,34.85099 0,0 0.435245,-29.36917 0.289403,-35.64751 4.492709,-0.5165 7.900033,0.72548 11.639962,0.33944 14.375961,-1.48394 24.436396,-3.94797 33.268577,-6.10849 13.159235,-3.21902 24.34612,-9.01612 38.42772,-18.00508 5.38116,-3.43508 13.7612,-10.11163 20.80769,-15.16357 3.20168,-2.29542 23.15751,-17.80615 26.91099,-20.28195 z"
     sodipodi:nodetypes="csccssssc" /></svg>
