<?xml version="1.0" encoding="UTF-8" standalone="no"?>
<!-- Created with Inkscape (http://www.inkscape.org/) -->

<svg
   width="210mm"
   height="297mm"
   viewBox="0 0 210 297"
   version="1.1"
   id="svg1"
   xml:space="preserve"
   inkscape:version="1.3.2 (091e20e, 2023-11-25)"
   sodipodi:docname="logo-5-star-funnel-space.svg"
   xmlns:inkscape="http://www.inkscape.org/namespaces/inkscape"
   xmlns:sodipodi="http://sodipodi.sourceforge.net/DTD/sodipodi-0.dtd"
   xmlns="http://www.w3.org/2000/svg"
   xmlns:svg="http://www.w3.org/2000/svg"><sodipodi:namedview
     id="namedview1"
     pagecolor="#ffffff"
     bordercolor="#000000"
     borderopacity="0.25"
     inkscape:showpageshadow="2"
     inkscape:pageopacity="0.0"
     inkscape:pagecheckerboard="0"
     inkscape:deskcolor="#d1d1d1"
     inkscape:document-units="mm"
     showguides="false"
     inkscape:zoom="0.24347909"
     inkscape:cx="301.87398"
     inkscape:cy="763.92598"
     inkscape:window-width="1320"
     inkscape:window-height="947"
     inkscape:window-x="457"
     inkscape:window-y="207"
     inkscape:window-maximized="0"
     inkscape:current-layer="svg1"><sodipodi:guide
       position="8.7312498,200.69167"
       orientation="0,-1"
       id="guide1"
       inkscape:locked="false" /><sodipodi:guide
       position="164.30625,287.47501"
       orientation="0,-1"
       id="guide10"
       inkscape:locked="false" /><sodipodi:guide
       position="139.7,282.71251"
       orientation="0,-1"
       id="guide11"
       inkscape:locked="false" /></sodipodi:namedview><defs
     id="defs1"><linearGradient
       id="swatch13"
       inkscape:swatch="solid"><stop
         style="stop-color:#000000;stop-opacity:1;"
         offset="0"
         id="stop13" /></linearGradient><linearGradient
       id="swatch7"><stop
         style="stop-color:#000000;stop-opacity:1;"
         offset="0"
         id="stop7" /></linearGradient></defs><rect
     style="fill:#565757;fill-opacity:0.996016;stroke:#000000;stroke-width:0.155544;stroke-dasharray:none;stroke-opacity:0.996016"
     id="rect1-5"
     width="249.80685"
     height="223.25331"
     x="-22.757233"
     y="40.097042"
     inkscape:label="bg" /><path
     id="path13"
     style="color:#000000;display:none;fill:#eae9e9;fill-opacity:1;stroke-miterlimit:1.4;-inkscape-stroke:none"
     d="m 101.19306,45.563236 -28.748113,52.92132 -50.906453,-16.733865 0.898653,41.078119 1.405082,42.25737 c 0.295119,13.35205 1.829863,20.3202 1.829863,20.3202 l 66.622807,22.76864 c -2.851764,1.14487 -5.675289,3.10719 -7.361308,7.19181 -7.294346,17.67156 30.878029,-1.35121 57.120029,16.47031 2.57903,1.44348 2.0895,-1.04495 1.7756,-1.71307 -9.86677,-21.00125 -44.078095,-14.72058 -18.74149,-23.15053 2.23661,-0.74416 2.21722,-0.74435 5.46168,-1.84123 18.47913,-6.24739 49.90962,-19.2195 49.90962,-19.2195 l 2.29347,-53.1101 2.89795,-54.26991 -56.11803,19.523876 z m -59.537965,83.966974 59.392755,20.71036 59.12869,-17.11575 -57.10659,34.56947 z"
     sodipodi:nodetypes="cccccccscssscccccccccc"
     inkscape:label="og-base" /><path
     id="path13-1"
     style="color:#000000;display:none;fill:#eae9e9;fill-opacity:1;stroke-miterlimit:1.4;-inkscape-stroke:none"
     d="m 105.58137,10.658738 -28.748105,52.921323 -65.8902,1.32347 17.034996,46.841099 79.078339,4.99598 79.7002,-8.08483 15.19231,-47.738539 -68.02819,2.23494 z"
     sodipodi:nodetypes="ccccccccc"
     inkscape:label="og-top" /><path
     style="color:#000000;display:inline;fill:#f2b901;fill-opacity:1;stroke:#000000;stroke-width:0.124911;stroke-dasharray:none;stroke-opacity:0.996016"
     d="m 100.20765,145.89155 -31.245426,1.59821 6.087497,-19.29925 -41.738885,-28.959132 50.799348,-0.43741 14.643736,-48.6449 16.11387,48.17788 50.78921,-1.10508 -40.84043,30.212992 6.67685,19.1234 z"
     id="path3"
     inkscape:label="star"
     sodipodi:nodetypes="ccccccccccc" /><path
     id="path13-14"
     style="color:#000000;display:inline;fill:#b4191c;fill-opacity:1;stroke:#000000;stroke-width:0.124911;stroke-miterlimit:1.4;stroke-dasharray:none;stroke-opacity:0.996016"
     d="m 56.542436,198.58778 0.0083,15.51856 c 14.409026,4.63316 21.880653,5.3472 36.285895,10.02064 -1.780152,0.72053 -3.542675,1.95554 -4.595135,4.52625 -4.553335,11.1218 24.489634,8.04047 32.052274,11.17793 3.6982,2.02904 8.55744,5.34722 12.81915,4.90604 -0.91592,-5.44777 -4.16442,-8.87263 -9.28695,-12.36378 -2.33825,-1.4874 -8.51079,-3.87476 -10.65346,-4.24413 -2.38744,-0.41156 -8.79731,-2.24571 -0.22541,-5.12118 10.46127,-3.80293 22.12075,-6.01683 32.86121,-8.84776 l 0.0336,-16.00954 -44.45937,0.49832 z"
     sodipodi:nodetypes="cccscsssscccc"
     inkscape:label="funnel" /><rect
     style="fill:#069100;fill-opacity:1;stroke:#000000;stroke-width:0.12435;stroke-dasharray:none;stroke-opacity:0.996016"
     id="rect2"
     width="89.098518"
     height="27.871473"
     x="56.868629"
     y="157.69708"
     inkscape:label="rim" /></svg>
